Results
version=1
nRows=3
nColumns=213
inDegrees=yes
endheader
time	platform_rx	platform_ry	platform_rz	platform_ty	pelvis_tilt	pelvis_list	pelvis_rotation	pelvis_tx	pelvis_ty	pelvis_tz	hip_flexion_r	hip_adduction_r	hip_rotation_r	knee_angle_r	knee_angle_r_beta	ankle_angle_r	subtalar_angle_r	mtp_angle_r	hip_flexion_l	hip_adduction_l	hip_rotation_l	knee_angle_l	knee_angle_l_beta	ankle_angle_l	subtalar_angle_l	mtp_angle_l	lumbar_extension	lumbar_bending	lumbar_rotation	arm_flex_r	arm_add_r	arm_rot_r	elbow_flex_r	pro_sup_r	wrist_flex_r	wrist_dev_r	arm_flex_l	arm_add_l	arm_rot_l	elbow_flex_l	pro_sup_l	wrist_flex_l	wrist_dev_l	platform_rx_u	platform_ry_u	platform_rz_u	platform_ty_u	pelvis_tilt_u	pelvis_list_u	pelvis_rotation_u	pelvis_tx_u	pelvis_ty_u	pelvis_tz_u	hip_flexion_r_u	hip_adduction_r_u	hip_rotation_r_u	knee_angle_r_u	knee_angle_r_beta_u	ankle_angle_r_u	subtalar_angle_r_u	mtp_angle_r_u	hip_flexion_l_u	hip_adduction_l_u	hip_rotation_l_u	knee_angle_l_u	knee_angle_l_beta_u	ankle_angle_l_u	subtalar_angle_l_u	mtp_angle_l_u	lumbar_extension_u	lumbar_bending_u	lumbar_rotation_u	arm_flex_r_u	arm_add_r_u	arm_rot_r_u	elbow_flex_r_u	pro_sup_r_u	wrist_flex_r_u	wrist_dev_r_u	arm_flex_l_u	arm_add_l_u	arm_rot_l_u	elbow_flex_l_u	pro_sup_l_u	wrist_flex_l_u	wrist_dev_l_u	addbrev_r.activation	addlong_r.activation	addlong_r.fiber_length	addmagDist_r.activation	addmagIsch_r.activation	addmagIsch_r.fiber_length	addmagMid_r.activation	addmagProx_r.activation	bflh_r.activation	bflh_r.fiber_length	bfsh_r.activation	edl_r.activation	edl_r.fiber_length	ehl_r.activation	ehl_r.fiber_length	fdl_r.activation	fdl_r.fiber_length	fhl_r.activation	fhl_r.fiber_length	gaslat_r.activation	gaslat_r.fiber_length	gasmed_r.activation	gasmed_r.fiber_length	glmax1_r.activation	glmax2_r.activation	glmax3_r.activation	glmed1_r.activation	glmed2_r.activation	glmed3_r.activation	glmin1_r.activation	glmin2_r.activation	glmin3_r.activation	glmin3_r.fiber_length	grac_r.activation	iliacus_r.activation	perbrev_r.activation	perbrev_r.fiber_length	perlong_r.activation	perlong_r.fiber_length	piri_r.activation	piri_r.fiber_length	psoas_r.activation	recfem_r.activation	recfem_r.fiber_length	sart_r.activation	semimem_r.activation	semimem_r.fiber_length	semiten_r.activation	semiten_r.fiber_length	soleus_r.activation	soleus_r.fiber_length	tfl_r.activation	tfl_r.fiber_length	tibant_r.activation	tibant_r.fiber_length	tibpost_r.activation	tibpost_r.fiber_length	vasint_r.activation	vasint_r.fiber_length	vaslat_r.activation	vaslat_r.fiber_length	vasmed_r.activation	vasmed_r.fiber_length	addbrev_l.activation	addlong_l.activation	addlong_l.fiber_length	addmagDist_l.activation	addmagIsch_l.activation	addmagIsch_l.fiber_length	addmagMid_l.activation	addmagProx_l.activation	bflh_l.activation	bflh_l.fiber_length	bfsh_l.activation	edl_l.activation	edl_l.fiber_length	ehl_l.activation	ehl_l.fiber_length	fdl_l.activation	fdl_l.fiber_length	fhl_l.activation	fhl_l.fiber_length	gaslat_l.activation	gaslat_l.fiber_length	gasmed_l.activation	gasmed_l.fiber_length	glmax1_l.activation	glmax2_l.activation	glmax3_l.activation	glmed1_l.activation	glmed2_l.activation	glmed3_l.activation	glmin1_l.activation	glmin2_l.activation	glmin3_l.activation	glmin3_l.fiber_length	grac_l.activation	iliacus_l.activation	perbrev_l.activation	perbrev_l.fiber_length	perlong_l.activation	perlong_l.fiber_length	piri_l.activation	piri_l.fiber_length	psoas_l.activation	recfem_l.activation	recfem_l.fiber_length	sart_l.activation	semimem_l.activation	semimem_l.fiber_length	semiten_l.activation	semiten_l.fiber_length	soleus_l.activation	soleus_l.fiber_length	tfl_l.activation	tfl_l.fiber_length	tibant_l.activation	tibant_l.fiber_length	tibpost_l.activation	tibpost_l.fiber_length	vasint_l.activation	vasint_l.fiber_length	vaslat_l.activation	vaslat_l.fiber_length	vasmed_l.activation	vasmed_l.fiber_length
      0.00219386	     20.00000000	      0.00000000	      0.00000000	      0.25000000	    -28.04308081	     -0.00000001	     -0.00000000	     -0.03499237	      0.51108457	     -0.00000000	    107.94135904	    -18.06645326	      3.01968534	    110.98968408	    110.98968408	     31.53050810	     -0.00000000	      0.00000000	    107.94135928	    -18.06644992	      3.01968527	    110.98968356	    110.98968356	     31.53050794	     -0.00000000	      0.00000000	     -0.07605499	      0.00000001	      0.00000000	     89.95408091	     -0.00081307	     89.83152089	      0.15433744	      0.15239346	      0.00000000	     -0.00000000	     89.95413341	     -0.00081080	     89.82388370	      0.15433714	      0.15239351	      0.00000000	      0.00000000	      0.00000000	      0.00000000	      0.00000000	      0.00000000	     54.57686862	     -0.00000659	     -0.00000127	      0.00691521	      0.07714088	     -0.00000001	    -53.53703511	     -3.17694469	     14.15361295	     -9.67139974	     -9.67139974	   -424.38342373	     -0.00000000	      0.00000000	    -53.53702776	     -3.17694130	     14.15362859	     -9.67139651	     -9.67139651	   -424.38342291	     -0.00000000	      0.00000000	    -69.28060444	      0.00000851	      0.00000054	     15.74373864	     -0.71216565	     -0.45931501	      1.99138561	      0.25665286	      0.00000000	      0.00000000	     15.74361799	     -0.71208576	     -0.45932713	      1.99111453	      0.25669863	      0.00000000	      0.00000000	      0.01000000	      0.01000000	      0.10413708	      0.01000000	      0.01000000	      0.22671309	      0.01000000	      0.01000000	      0.01000000	      0.12220189	      0.01000000	      0.01000000	      0.04965488	      0.01000000	      0.05690259	      0.01000000	      0.04772924	      0.01000000	      0.05663022	      0.01000000	      0.05016729	      0.01000000	      0.03598575	      0.01000000	      0.01000000	      0.01000000	      0.01000000	      0.01000000	      0.01000000	      0.01000000	      0.01000000	      0.01000000	      0.04301176	      0.01000000	      0.01000000	      0.01000000	      0.05093262	      0.01000000	      0.05774750	      0.01000000	      0.03285490	      0.01000000	      0.01000000	      0.05084051	      0.01000000	      0.01000000	      0.07672727	      0.01000000	      0.22855202	      0.01000000	      0.06218352	      0.01000000	      0.02401564	      0.01000000	      0.04296007	      0.01000000	      0.04222470	      0.01000000	      0.14072243	      0.01000000	      0.13714954	      0.01000000	      0.13430944	      0.01000000	      0.01000000	      0.10413708	      0.01000000	      0.01000000	      0.22671308	      0.01000000	      0.01000000	      0.01000000	      0.12220189	      0.01000000	      0.01000000	      0.04965488	      0.01000000	      0.05690260	      0.01000000	      0.04772924	      0.01000000	      0.05663022	      0.01000000	      0.05016729	      0.01000000	      0.03598575	      0.01000000	      0.01000000	      0.01000000	      0.01000000	      0.01000000	      0.01000000	      0.01000000	      0.01000000	      0.01000000	      0.04301176	      0.01000000	      0.01000000	      0.01000000	      0.05093262	      0.01000000	      0.05774750	      0.01000000	      0.03285490	      0.01000000	      0.01000000	      0.05084051	      0.01000000	      0.01000000	      0.07672727	      0.01000000	      0.22855202	      0.01000000	      0.06218352	      0.01000000	      0.02401564	      0.01000000	      0.04296007	      0.01000000	      0.04222470	      0.01000000	      0.14072243	      0.01000000	      0.13714954	      0.01000000	      0.13430944
      0.00305042	     20.00000000	      0.00000000	     -0.00000000	      0.25000000	    -27.98724067	     -0.00000001	     -0.00000000	     -0.03498533	      0.51116359	     -0.00000000	    107.88648185	    -18.06970396	      3.03406315	    110.97956027	    110.97956027	     31.09871027	      0.00000000	      0.00000000	    107.88648209	    -18.06970061	      3.03406310	    110.97955976	    110.97955976	     31.09871012	     -0.00000000	      0.00000000	     -0.14694246	      0.00000002	      0.00000000	     89.97018903	     -0.00154134	     89.83105177	      0.15637380	      0.15265332	      0.00000000	      0.00000000	     89.97024140	     -0.00153898	     89.82341456	      0.15637323	      0.15265341	      0.00000000	      0.00000000	      0.00000000	      0.00000000	     -0.00000000	      0.00000000	     75.79494573	     -0.00000912	     -0.00000175	      0.00951440	      0.10736321	     -0.00000001	    -74.61344754	     -4.41266903	     19.38482203	    -14.04076182	    -14.04076182	   -583.11353488	      0.00000000	      0.00000000	    -74.61343736	     -4.41266435	     19.38484368	    -14.04075734	    -14.04075734	   -583.11353368	     -0.00000000	      0.00000000	    -96.22370023	      0.00001179	      0.00000077	     21.86507546	     -0.98813573	     -0.63588304	      2.76293206	      0.34973198	      0.00000000	      0.00000000	     21.86490820	     -0.98802552	     -0.63589982	      2.76255786	      0.34979515	     -0.00000000	      0.00000000	      0.01000000	      0.01000000	      0.10412250	      0.01000000	      0.01000000	      0.22669052	      0.01000000	      0.01000000	      0.01000000	      0.12219279	      0.01000000	      0.01000000	      0.04983613	      0.01000000	      0.05712224	      0.01000000	      0.04772563	      0.01000000	      0.05661495	      0.01000000	      0.05008878	      0.01000000	      0.03591713	      0.01000000	      0.01000000	      0.01000000	      0.01000000	      0.01000000	      0.01000000	      0.01000000	      0.01000000	      0.01000000	      0.04299925	      0.01000000	      0.01000000	      0.01000000	      0.05092049	      0.01000000	      0.05773290	      0.01000000	      0.03284654	      0.01000000	      0.01000000	      0.05084702	      0.01000000	      0.01000000	      0.07672172	      0.01000000	      0.22853543	      0.01000000	      0.06206216	      0.01000000	      0.02401564	      0.01000000	      0.04321429	      0.01000000	      0.04221700	      0.01000000	      0.14071946	      0.01000000	      0.13714675	      0.01000000	      0.13430683	      0.01000000	      0.01000000	      0.10412250	      0.01000000	      0.01000000	      0.22669052	      0.01000000	      0.01000000	      0.01000000	      0.12219279	      0.01000000	      0.01000000	      0.04983613	      0.01000000	      0.05712224	      0.01000000	      0.04772563	      0.01000000	      0.05661495	      0.01000000	      0.05008878	      0.01000000	      0.03591713	      0.01000000	      0.01000000	      0.01000000	      0.01000000	      0.01000000	      0.01000000	      0.01000000	      0.01000000	      0.01000000	      0.04299925	      0.01000000	      0.01000000	      0.01000000	      0.05092049	      0.01000000	      0.05773290	      0.01000000	      0.03284654	      0.01000000	      0.01000000	      0.05084702	      0.01000000	      0.01000000	      0.07672173	      0.01000000	      0.22853543	      0.01000000	      0.06206216	      0.01000000	      0.02401564	      0.01000000	      0.04321429	      0.01000000	      0.04221700	      0.01000000	      0.14071946	      0.01000000	      0.13714675	      0.01000000	      0.13430683
      0.00394919	     20.00000000	      0.00000000	      0.00000000	      0.25000000	    -27.90913921	     -0.00000002	     -0.00000000	     -0.03497559	      0.51127437	     -0.00000000	    107.80944340	    -18.07425178	      3.05387063	    110.96468970	    110.96468970	     30.50152239	     -0.00000000	      0.00000000	    107.80944366	    -18.07424843	      3.05387060	    110.96468920	    110.96468920	     30.50152224	     -0.00000000	      0.00000000	     -0.24609956	      0.00000003	      0.00000000	     89.99272186	     -0.00255930	     89.83039726	      0.15922006	      0.15301118	      0.00000000	      0.00000000	     89.99277406	     -0.00255683	     89.82276004	      0.15921910	      0.15301134	      0.00000000	      0.00000000	      0.00000000	      0.00000000	      0.00000000	     -0.00000000	     97.98702551	     -0.00001176	     -0.00000223	      0.01213505	      0.13916221	     -0.00000002	    -96.83171395	     -5.70745954	     24.65320689	    -19.14482294	    -19.14482294	   -745.00808807	     -0.00000000	      0.00000000	    -96.83170082	     -5.70745351	     24.65323481	    -19.14481716	    -19.14481716	   -745.00808643	     -0.00000000	     -0.00000000	   -124.40976350	      0.00001520	      0.00000101	     28.27378092	     -1.27700555	     -0.82055729	      3.57052434	      0.44687394	     -0.00000000	      0.00000000	     28.27356488	     -1.27686362	     -0.82057896	      3.57004225	      0.44695534	     -0.00000000	      0.00000000	      0.01000000	      0.01000000	      0.10410000	      0.01000000	      0.01000000	      0.22663845	      0.01000000	      0.01000000	      0.01000000	      0.12217858	      0.01000000	      0.01000000	      0.05012303	      0.01000000	      0.05745694	      0.01000000	      0.04771918	      0.01000000	      0.05658719	      0.01000000	      0.04995552	      0.01000000	      0.03580429	      0.01000000	      0.01000000	      0.01000000	      0.01000000	      0.01000000	      0.01000000	      0.01000000	      0.01000000	      0.01000000	      0.04298022	      0.01000000	      0.01000000	      0.01000000	      0.05090020	      0.01000000	      0.05770689	      0.01000000	      0.03283289	      0.01000000	      0.01000000	      0.05085854	      0.01000000	      0.01000000	      0.07671241	      0.01000000	      0.22851089	      0.01000000	      0.06188547	      0.01000000	      0.02401564	      0.01000000	      0.04358679	      0.01000000	      0.04220327	      0.01000000	      0.14071496	      0.01000000	      0.13714249	      0.01000000	      0.13430286	      0.01000000	      0.01000000	      0.10410000	      0.01000000	      0.01000000	      0.22663845	      0.01000000	      0.01000000	      0.01000000	      0.12217858	      0.01000000	      0.01000000	      0.05012303	      0.01000000	      0.05745694	      0.01000000	      0.04771918	      0.01000000	      0.05658719	      0.01000000	      0.04995552	      0.01000000	      0.03580429	      0.01000000	      0.01000000	      0.01000000	      0.01000000	      0.01000000	      0.01000000	      0.01000000	      0.01000000	      0.01000000	      0.04298022	      0.01000000	      0.01000000	      0.01000000	      0.05090020	      0.01000000	      0.05770689	      0.01000000	      0.03283289	      0.01000000	      0.01000000	      0.05085854	      0.01000000	      0.01000000	      0.07671241	      0.01000000	      0.22851089	      0.01000000	      0.06188547	      0.01000000	      0.02401564	      0.01000000	      0.04358679	      0.01000000	      0.04220327	      0.01000000	      0.14071496	      0.01000000	      0.13714249	      0.01000000	      0.13430286
